<svg xmlns="http://www.w3.org/2000/svg" viewBox="0 0 92.3 93.1" fill="currentColor">
                            <g>
                              <rect x="45.7" class="st0"></rect>
                              <rect x="45.7" y="0" transform="matrix(0.8412 -0.5407 0.5407 0.8412 -17.8476 32.3497)" class="st0" width="1" height="93.1"></rect>
                              <rect x="45.7" y="0" transform="matrix(0.4155 -0.9096 0.9096 0.4155 -15.3764 69.2119)" class="st0" width="1" height="93.1"></rect>
                              <rect x="-0.4" y="46.1" transform="matrix(0.9898 -0.1425 0.1425 0.9898 -6.1646 7.0506)" class="st0" width="93.1" height="1"></rect>
                              <rect x="-0.4" y="46.1" transform="matrix(0.7556 -0.655 0.655 0.7556 -19.2157 41.618)" class="st0" width="93.1" height="1"></rect>
                              <rect x="-0.4" y="46.1" transform="matrix(0.2812 -0.9597 0.9597 0.2812 -11.5032 77.7858)" class="st0" width="93.1" height="1"></rect>
                              <rect x="45.7" y="0" transform="matrix(0.9595 -0.2817 0.2817 0.9595 -11.2479 14.8866)" class="st0" width="1" height="93.1"></rect>
                              <rect x="45.7" y="0" transform="matrix(0.6549 -0.7557 0.7557 0.6549 -19.2631 50.9572)" class="st0" width="1" height="93.1"></rect>
                              <rect x="45.7" y="0" transform="matrix(0.1423 -0.9898 0.9898 0.1423 -6.4999 85.629)" class="st0" width="1" height="93.1"></rect>
                              <rect x="-0.4" y="46.1" transform="matrix(0.9097 -0.4153 0.4153 0.9097 -15.1716 23.381)" class="st0" width="93.1" height="1"></rect>
                              <rect x="-0.4" y="46.1" transform="matrix(0.5411 -0.8409 0.8409 0.5411 -17.9774 60.1901)" class="st0" width="93.1" height="1"></rect>
                            </g>
                          </svg>